<?xml version="1.0" encoding="iso-8859-1"?>
<!-- Generator: Adobe Illustrator 16.0.0, SVG Export Plug-In . SVG Version: 6.00 Build 0)  -->
<!DOCTYPE svg PUBLIC "-//W3C//DTD SVG 1.1//EN" "http://www.w3.org/Graphics/SVG/1.1/DTD/svg11.dtd">
<svg version="1.1" id="Capa_1" xmlns="http://www.w3.org/2000/svg" xmlns:xlink="http://www.w3.org/1999/xlink" x="0px" y="0px"
	 width="76.693px" height="76.694px" viewBox="0 0 76.693 76.694" style="enable-background:new 0 0 76.693 76.694;"
	 xml:space="preserve">
<g>
	<g>
		<g>
			<path d="M30.833,0c-7.732,0-13.992,6.265-13.992,13.994c0,7.729,6.265,13.993,13.992,13.993c7.726,0,13.992-6.265,13.992-13.993
				C44.825,6.265,38.562,0,30.833,0z M30.833,26.278c-6.784,0-12.287-5.501-12.287-12.286c0-6.786,5.499-12.287,12.287-12.287
				c6.787,0,12.286,5.5,12.286,12.287C43.119,20.777,37.621,26.278,30.833,26.278z"/>
			<path d="M35.26,13.756c-0.675-0.463-1.954-0.958-3.833-1.486V6.341c1.119,0.042,1.935,0.472,2.445,1.292
				c0.274,0.446,0.441,0.977,0.498,1.594h2.13c-0.042-1.377-0.493-2.481-1.355-3.32c-0.867-0.838-2.106-1.313-3.718-1.427V2.884
				h-1.159v1.618c-1.633,0.018-2.897,0.519-3.805,1.51c-0.905,0.99-1.355,2.102-1.355,3.335c0,1.38,0.421,2.46,1.259,3.238
				c0.838,0.778,2.14,1.336,3.9,1.667v6.633c-1.373-0.114-2.313-0.628-2.819-1.546c-0.288-0.511-0.459-1.322-0.53-2.434h-2.153
				c0,1.397,0.234,2.505,0.693,3.323c0.84,1.518,2.45,2.354,4.81,2.508v2.362h1.159v-2.362c1.469-0.163,2.59-0.495,3.371-0.997
				c1.401-0.909,2.1-2.442,2.1-4.602C36.901,15.646,36.353,14.517,35.26,13.756z M30.268,12.038
				c-0.909-0.177-1.627-0.495-2.168-0.948c-0.535-0.456-0.805-1.083-0.805-1.888c0-0.666,0.231-1.303,0.68-1.91
				c0.455-0.61,1.217-0.932,2.289-0.974L30.268,12.038L30.268,12.038z M34.297,19.427c-0.525,0.951-1.483,1.458-2.871,1.52v-6.402
				c1.014,0.275,1.732,0.567,2.163,0.876c0.748,0.528,1.121,1.299,1.121,2.312C34.71,18.378,34.574,18.941,34.297,19.427z"/>
		</g>
		<g>
			<path d="M21.207,35.137l0.78,2.2c5.938-2.1,12.501-2.123,18.474-0.062l0.762-2.207C34.752,32.837,27.642,32.857,21.207,35.137z"
				/>
			<path d="M74.545,48.792l-0.062-1.023L73.46,47.7c-0.874-0.058-1.943-0.021-2.923,0.016c-0.545,0.022-1.151,0.05-1.583,0.041
				c-2.263-4.24-5.39-7.396-9.311-9.387c0.157-2.174,0.526-4.213,1.703-5.185l2.264-1.866l-2.927-0.201
				c-4.182-0.269-7.607,2.319-9.646,4.396c-4.312-3.771-11.805-6.071-19.971-6.071c-0.018,0-0.039,0-0.056,0
				c-8.058,0.011-15.421,2.214-20.858,6.147l-1.087-0.738c-1.349-0.92-2.842-0.997-4.099-0.196c-1.968,1.257-2.784,4.188-2.438,6.3
				c0.189,1.143,0.698,2.06,1.456,2.659c-2.841,5.208-2.768,13.618,1.686,17.788c0.652,5.479,1.698,11.024,4.642,14.839l0.348,0.451
				h11.04l-0.169-1.313c-0.172-1.346-0.366-2.833-0.341-4.43c5.104,0.999,11.063,1.309,17.035,0.883
				c0.9,1.503,1.827,3.054,2.953,4.432l0.35,0.429h9.598l1.321-0.116l-0.183-1.327c-0.278-2.028-0.563-4.115-0.198-6.106
				c2.893-0.701,13.467-3.682,20.794-11.314h0.002C74.623,55.996,74.812,53.007,74.545,48.792z M71.181,56.21
				c-8.016,8.344-20.191,10.784-20.309,10.808l-0.725,0.141l-0.186,0.712c-0.581,2.19-0.439,4.334-0.166,6.487h-7.149
				c-0.878-1.151-1.641-2.427-2.445-3.769l-0.722-1.199l-0.727,0.055c-6.502,0.536-13.041,0.155-18.401-1.063l-1.293-0.292
				l-0.127,1.323c-0.173,1.798-0.051,3.479,0.114,4.948h-7.224c-2.422-3.466-3.303-8.606-3.887-13.671l-0.053-0.456l-0.353-0.299
				c-4.062-3.429-3.909-11.864-0.93-16.113l0.979-1.395l-1.654-0.408c-0.591-0.146-0.956-0.634-1.089-1.441
				c-0.141-0.828,0.019-1.787,0.351-2.579c-0.082,0.364-0.075,0.713,0.027,1.046c0.149,0.495,0.649,1.346,2.289,1.471l0.549,0.046
				l0.383-0.401c5.085-5.311,13.31-8.368,22.573-8.377c0.02,0,0.038,0,0.054,0c8.148,0,15.495,2.375,19.179,6.207l0.888,0.92
				l0.835-0.962c1.234-1.416,3.483-3.567,6.255-4.277c-0.648,1.558-0.86,3.455-0.961,5.349l-0.045,0.791l0.721,0.331
				c4.017,1.848,7.037,4.872,9.233,9.252l0.258,0.518l0.568,0.107c0.561,0.109,1.368,0.084,2.623,0.037
				c0.536-0.019,1.108-0.042,1.651-0.044C72.39,52.635,72.267,55.079,71.181,56.21L71.181,56.21z"/>
			<circle cx="59.557" cy="47.104" r="1.976"/>
		</g>
	</g>
</g>
<g>
</g>
<g>
</g>
<g>
</g>
<g>
</g>
<g>
</g>
<g>
</g>
<g>
</g>
<g>
</g>
<g>
</g>
<g>
</g>
<g>
</g>
<g>
</g>
<g>
</g>
<g>
</g>
<g>
</g>
</svg>
